PathFileType  4	(X/Y/Z) C:\Users\antoi\Documents\MyRepositories\mobilecap\ResultsAnalysis
DataRate	CameraRate	NumFrames	NumMarkers	Units	OrigDataRate	OrigDataStartFrame	OrigNumFrames
100.0	100.0	4	51	mm	100.0	1	1413
Frame#	Time	r_knee			r_shank_antsup			r_ankle			r_calc			r_5meta			r_toe			L_knee			L_shank_antsup			L_ankle			L_calc			L_5meta			L_toe			r_sh2			r_sh3			r_sh4			L_sh2			L_sh3			r_thigh1			r_thigh2			r_thigh3			r_thigh4			r_thigh5			L_thigh1			L_thigh2			L_thigh3			L_thigh4			r.ASIS			r.PSIS			L.ASIS			L.PSIS			C7			R_Shoulder			L_Shoulder			R_Sternum			L_Sternum			R_humerus			R_elbow_med			R_elbow_lat			R_forearm			R_wrist_radius			R_wrist_ulna			L_humerus			L_elbow_med			L_elbow_lat			L_forearm			L_wrist_radius			L_wrist_ulna			R_HJC			L_HJC			R_HJC_reg			L_HJC_reg			
		X1	Y1	Z1	X2	Y2	Z2	X3	Y3	Z3	X4	Y4	Z4	X5	Y5	Z5	X6	Y6	Z6	X7	Y7	Z7	X8	Y8	Z8	X9	Y9	Z9	X10	Y10	Z10	X11	Y11	Z11	X12	Y12	Z12	X13	Y13	Z13	X14	Y14	Z14	X15	Y15	Z15	X16	Y16	Z16	X17	Y17	Z17	X18	Y18	Z18	X19	Y19	Z19	X20	Y20	Z20	X21	Y21	Z21	X22	Y22	Z22	X23	Y23	Z23	X24	Y24	Z24	X25	Y25	Z25	X26	Y26	Z26	X27	Y27	Z27	X28	Y28	Z28	X29	Y29	Z29	X30	Y30	Z30	X31	Y31	Z31	X32	Y32	Z32	X33	Y33	Z33	X34	Y34	Z34	X35	Y35	Z35	X36	Y36	Z36	X37	Y37	Z37	X38	Y38	Z38	X39	Y39	Z39	X40	Y40	Z40	X41	Y41	Z41	X42	Y42	Z42	X43	Y43	Z43	X44	Y44	Z44	X45	Y45	Z45	X46	Y46	Z46	X47	Y47	Z47	X48	Y48	Z48	X49	Y49	Z49	X50	Y50	Z50	X51	Y51	Z51	

1	0.00000000	-172.77771	474.47202	-455.01546	-114.09568	409.55043	-459.87913	-258.94294	99.51940	-449.05383	-330.11634	65.61129	-481.04182	-158.07676	45.67870	-410.31301	-111.36854	70.12640	-467.13972	-184.37611	469.01792	-934.65119	-134.29157	388.37974	-946.91700	-260.69052	99.64149	-931.30316	-329.21515	63.06223	-891.55963	-156.06577	42.65681	-977.25958	-114.90065	64.90077	-922.09572	-163.75910	306.87419	-434.33250	-186.87515	439.52163	-438.14493	-230.45607	332.87945	-430.83007	-220.50898	414.08901	-945.79271	-246.09143	294.19248	-955.80678	-479.10607	553.04315	-506.50271	-371.05440	545.87267	-488.20328	-356.54390	488.10783	-451.87365	-493.03090	444.12666	-481.68682	-376.54525	435.70692	-463.90537	-453.35110	516.14502	-928.37001	-315.77119	519.86163	-933.21517	-450.57273	402.88683	-894.61672	-311.21814	412.44809	-914.63764	-485.23338	575.87170	-577.38233	-676.68483	584.62632	-648.72617	-493.57386	566.63560	-821.59479	-688.38676	586.60999	-743.43494	-635.09847	1002.48037	-709.66968	-550.67479	983.85273	-539.85324	-570.65202	982.72489	-882.05943	-493.44971	968.51259	-692.05996	-493.72105	970.40073	-730.11695	-569.20115	856.73081	-466.73706	-612.50008	640.93790	-511.56716	-615.74780	663.99193	-433.04764	-493.20905	726.05895	-440.25239	-360.94823	751.86666	-451.22719	-379.30910	779.50013	-464.13436	-572.81338	869.78104	-947.86061	-608.25695	637.48621	-887.22653	-613.79557	667.61743	-970.69463	-526.11511	728.12113	-962.07271	-391.20763	793.47638	-947.23892	-380.90698	761.85491	-956.74548	-548.48443	485.28705	-595.00171	-556.94850	482.44766	-801.27950	-537.87886	487.35479	-606.57340	-557.66489	490.70884	-766.71017	
2	0.01000000	-172.80287	474.49805	-454.95478	-114.08751	409.47717	-459.95141	-258.79857	99.51284	-449.12983	-330.09927	65.60214	-481.02592	-158.11283	45.72514	-410.25495	-111.36220	70.10288	-467.13805	-184.39011	469.02417	-934.62880	-134.29316	388.42116	-946.91773	-260.68032	99.63671	-931.30278	-329.21664	63.04672	-891.57117	-156.06607	42.66595	-977.25693	-114.89294	64.91468	-922.10923	-163.89473	306.84845	-434.33800	-186.91282	439.50459	-438.11870	-230.70478	333.77811	-431.19713	-220.56398	414.01523	-945.78444	-246.10206	294.10797	-955.69114	-479.00137	553.20243	-506.50786	-371.05447	545.90199	-488.20740	-356.56186	488.09458	-451.87237	-493.08730	444.10024	-481.71594	-376.56153	435.81672	-463.83479	-453.35952	516.15711	-928.38252	-315.80309	519.84923	-933.32575	-450.59085	402.91044	-894.61673	-311.22993	412.44861	-914.64040	-485.31047	576.00415	-577.49989	-676.70162	584.66656	-648.73887	-493.60916	566.71731	-821.64238	-688.46081	586.48923	-743.31707	-635.14005	1002.48570	-709.67956	-550.63060	983.84971	-539.80205	-570.64697	982.72022	-882.08733	-493.40781	968.48183	-692.05282	-493.70891	970.37952	-730.12654	-569.21960	856.73384	-466.73583	-612.42901	641.03968	-511.43113	-615.60441	664.09270	-432.90838	-493.18768	726.05682	-440.23317	-360.94155	751.85803	-451.28219	-379.29021	779.57200	-464.20404	-572.83429	869.79761	-947.84972	-608.33898	637.44451	-887.07036	-613.93112	667.55367	-970.54285	-526.15438	728.09054	-961.99821	-391.28472	793.46074	-947.25223	-380.95134	761.84972	-956.75547	-548.42397	485.38557	-594.99848	-556.96252	482.46807	-801.27200	-537.87508	487.64900	-606.49940	-557.77851	490.73401	-766.58090	
3	0.02000000	-172.86534	474.50353	-454.95032	-114.11170	409.44829	-459.90100	-258.73935	99.57029	-449.17583	-330.09485	65.58667	-481.02458	-158.11233	45.77965	-410.23139	-111.33403	70.10804	-467.12353	-184.40283	469.00375	-934.61344	-134.31820	388.45325	-946.91099	-260.67463	99.63032	-931.30055	-329.21932	63.03809	-891.57501	-156.06481	42.67035	-977.25707	-114.89414	64.92416	-922.11782	-163.87690	306.84415	-434.33198	-186.92105	439.51464	-438.11414	-230.66113	333.85000	-431.14882	-220.59909	413.99041	-945.79836	-246.12774	294.10180	-955.71648	-478.96676	553.25795	-506.43796	-371.09547	545.88185	-488.16595	-356.57410	488.04964	-451.84452	-493.15903	444.07988	-481.74445	-376.56651	435.82842	-463.86818	-453.36657	516.17667	-928.41484	-315.81128	519.83076	-933.38299	-450.61426	402.92566	-894.61580	-311.25203	412.42816	-914.62027	-485.40720	576.03708	-577.64460	-676.73655	584.64857	-648.73244	-493.72226	566.68471	-821.45149	-688.49825	586.44866	-743.25637	-635.09292	1002.49428	-709.66463	-550.62144	983.84297	-539.79475	-570.65769	982.71779	-882.09616	-493.34948	968.45628	-692.07026	-493.62366	970.32796	-730.06222	-569.16015	856.73558	-466.67838	-612.43787	641.08063	-511.35525	-615.56489	664.09814	-432.82009	-493.14735	726.05317	-440.21490	-360.91621	751.88038	-451.31549	-379.25152	779.59480	-464.20970	-572.86689	869.82395	-947.83283	-608.40116	637.41978	-887.08353	-614.00259	667.55033	-970.54759	-526.19732	728.07325	-961.97615	-391.33682	793.44149	-947.25502	-381.00245	761.82410	-956.77017	-548.47258	485.40636	-594.94590	-557.02990	482.42650	-801.21799	-537.95023	487.76161	-606.56389	-557.84218	490.80588	-766.42650	
4	0.03000000	-172.93174	474.46194	-455.00178	-114.13127	409.43008	-459.83081	-258.73111	99.68038	-449.18041	-330.13197	65.57865	-481.04817	-158.09828	45.81156	-410.22289	-111.31337	70.12166	-467.10729	-184.41947	468.97367	-934.60622	-134.35992	388.46564	-946.90197	-260.67091	99.63042	-931.29733	-329.22275	63.03283	-891.57494	-156.06443	42.66878	-977.26148	-114.89639	64.92967	-922.11705	-163.85483	306.78925	-434.29930	-186.90341	439.54323	-438.12470	-230.43991	333.20640	-430.82755	-220.62218	413.99675	-945.78663	-246.16271	294.15579	-955.82754	-479.01748	553.26113	-506.34094	-371.16682	545.82148	-488.02454	-356.59878	488.02840	-451.82682	-493.15124	444.08415	-481.74574	-376.60497	435.80345	-463.90317	-453.37224	516.17672	-928.46892	-315.80086	519.82683	-933.46161	-450.63969	402.93595	-894.60287	-311.27384	412.40235	-914.60275	-485.50753	576.03635	-577.78197	-676.80173	584.60379	-648.71691	-493.78425	566.70327	-821.37804	-688.53459	586.46735	-743.22075	-634.92969	1002.53805	-709.61943	-550.62993	983.81615	-539.81305	-570.66119	982.71962	-882.07186	-493.27184	968.43668	-692.04890	-493.46951	970.21786	-729.98085	-569.12612	856.79797	-466.53608	-612.43295	641.10512	-511.19423	-615.50225	664.11340	-432.65408	-493.07277	726.03096	-440.18568	-360.87154	751.91944	-451.33652	-379.19236	779.61407	-464.20343	-572.89664	869.84503	-947.82547	-608.44453	637.33302	-887.17676	-614.07178	667.56953	-970.60072	-526.22958	728.09145	-962.03210	-391.32701	793.42588	-947.22521	-381.04364	761.80025	-956.78686	-548.52064	485.39250	-594.96624	-557.09447	482.44305	-801.23814	-538.01624	487.74345	-606.74091	-557.84655	490.89315	-766.46767	
